<?xml version="1.0" encoding="UTF-8" standalone="no"?>
<!DOCTYPE svg PUBLIC "-//W3C//DTD SVG 1.1//EN"
 "http://www.w3.org/Graphics/SVG/1.1/DTD/svg11.dtd">
<!-- Generated by graphviz version 2.40.1 (20161225.0304)
 -->
<!-- Title: G Pages: 1 -->
<svg width="1910pt" height="568pt"
 viewBox="0.00 0.00 1910.00 568.00" xmlns="http://www.w3.org/2000/svg" xmlns:xlink="http://www.w3.org/1999/xlink">
<g id="graph0" class="graph" transform="scale(1 1) rotate(0) translate(4 564)">
<title>G</title>
<polygon fill="#ffffff" stroke="transparent" points="-4,4 -4,-564 1906,-564 1906,4 -4,4"/>
<!-- aws_db_subnet_group.da&#45;mlops&#45;test&#45;db&#45;subnet&#45;group -->
<g id="node1" class="node">
<title>aws_db_subnet_group.da&#45;mlops&#45;test&#45;db&#45;subnet&#45;group</title>
<polygon fill="none" stroke="#000000" points="1020,-290 616,-290 616,-254 1020,-254 1020,-290"/>
<text text-anchor="middle" x="818" y="-268.3" font-family="sans-serif" font-size="14.00" fill="#000000">aws_db_subnet_group.da&#45;mlops&#45;test&#45;db&#45;subnet&#45;group</text>
</g>
<!-- aws_subnet.da&#45;mlops&#45;test&#45;db&#45;sub -->
<g id="node18" class="node">
<title>aws_subnet.da&#45;mlops&#45;test&#45;db&#45;sub</title>
<polygon fill="none" stroke="#000000" points="542.5,-290 283.5,-290 283.5,-254 542.5,-254 542.5,-290"/>
<text text-anchor="middle" x="413" y="-268.3" font-family="sans-serif" font-size="14.00" fill="#000000">aws_subnet.da&#45;mlops&#45;test&#45;db&#45;sub</text>
</g>
<!-- aws_db_subnet_group.da&#45;mlops&#45;test&#45;db&#45;subnet&#45;group&#45;&gt;aws_subnet.da&#45;mlops&#45;test&#45;db&#45;sub -->
<g id="edge1" class="edge">
<title>aws_db_subnet_group.da&#45;mlops&#45;test&#45;db&#45;subnet&#45;group&#45;&gt;aws_subnet.da&#45;mlops&#45;test&#45;db&#45;sub</title>
<path fill="none" stroke="#000000" d="M615.7966,-272C594.5448,-272 573.2886,-272 552.9643,-272"/>
<polygon fill="#000000" stroke="#000000" points="552.7473,-268.5001 542.7473,-272 552.7473,-275.5001 552.7473,-268.5001"/>
</g>
<!-- aws_eip.da&#45;mlops&#45;test&#45;eip -->
<g id="node2" class="node">
<title>aws_eip.da&#45;mlops&#45;test&#45;eip</title>
<polygon fill="none" stroke="#000000" points="920.5,-452 715.5,-452 715.5,-416 920.5,-416 920.5,-452"/>
<text text-anchor="middle" x="818" y="-430.3" font-family="sans-serif" font-size="14.00" fill="#000000">aws_eip.da&#45;mlops&#45;test&#45;eip</text>
</g>
<!-- aws_internet_gateway.da&#45;mlops&#45;test&#45;igw -->
<g id="node3" class="node">
<title>aws_internet_gateway.da&#45;mlops&#45;test&#45;igw</title>
<polygon fill="none" stroke="#000000" points="567.5,-425 258.5,-425 258.5,-389 567.5,-389 567.5,-425"/>
<text text-anchor="middle" x="413" y="-403.3" font-family="sans-serif" font-size="14.00" fill="#000000">aws_internet_gateway.da&#45;mlops&#45;test&#45;igw</text>
</g>
<!-- aws_eip.da&#45;mlops&#45;test&#45;eip&#45;&gt;aws_internet_gateway.da&#45;mlops&#45;test&#45;igw -->
<g id="edge2" class="edge">
<title>aws_eip.da&#45;mlops&#45;test&#45;eip&#45;&gt;aws_internet_gateway.da&#45;mlops&#45;test&#45;igw</title>
<path fill="none" stroke="#000000" d="M715.2778,-427.1519C673.5774,-424.3718 624.3511,-421.0901 577.8669,-417.9911"/>
<polygon fill="#000000" stroke="#000000" points="577.8936,-414.4852 567.6829,-417.3122 577.4279,-421.4697 577.8936,-414.4852"/>
</g>
<!-- aws_vpc.da&#45;mlops&#45;test&#45;vpc -->
<g id="node21" class="node">
<title>aws_vpc.da&#45;mlops&#45;test&#45;vpc</title>
<polygon fill="none" stroke="#000000" points="210,-190 0,-190 0,-154 210,-154 210,-190"/>
<text text-anchor="middle" x="105" y="-168.3" font-family="sans-serif" font-size="14.00" fill="#000000">aws_vpc.da&#45;mlops&#45;test&#45;vpc</text>
</g>
<!-- aws_internet_gateway.da&#45;mlops&#45;test&#45;igw&#45;&gt;aws_vpc.da&#45;mlops&#45;test&#45;vpc -->
<g id="edge3" class="edge">
<title>aws_internet_gateway.da&#45;mlops&#45;test&#45;igw&#45;&gt;aws_vpc.da&#45;mlops&#45;test&#45;vpc</title>
<path fill="none" stroke="#000000" d="M381.8414,-388.8939C347.5294,-368.494 291.2279,-333.6423 246,-299 203.446,-266.4057 158.0283,-223.9429 130.576,-197.3215"/>
<polygon fill="#000000" stroke="#000000" points="132.9305,-194.7288 123.3268,-190.2544 128.044,-199.7411 132.9305,-194.7288"/>
</g>
<!-- aws_nat_gateway.da&#45;mlops&#45;test&#45;natgw -->
<g id="node4" class="node">
<title>aws_nat_gateway.da&#45;mlops&#45;test&#45;natgw</title>
<polygon fill="none" stroke="#000000" points="1413,-398 1117,-398 1117,-362 1413,-362 1413,-398"/>
<text text-anchor="middle" x="1265" y="-376.3" font-family="sans-serif" font-size="14.00" fill="#000000">aws_nat_gateway.da&#45;mlops&#45;test&#45;natgw</text>
</g>
<!-- aws_nat_gateway.da&#45;mlops&#45;test&#45;natgw&#45;&gt;aws_eip.da&#45;mlops&#45;test&#45;eip -->
<g id="edge4" class="edge">
<title>aws_nat_gateway.da&#45;mlops&#45;test&#45;natgw&#45;&gt;aws_eip.da&#45;mlops&#45;test&#45;eip</title>
<path fill="none" stroke="#000000" d="M1116.7764,-397.9062C1056.1218,-405.2336 987.0922,-413.5727 930.6759,-420.3881"/>
<polygon fill="#000000" stroke="#000000" points="930.1629,-416.9246 920.6549,-421.5987 931.0025,-423.8741 930.1629,-416.9246"/>
</g>
<!-- aws_subnet.da&#45;mlops&#45;test&#45;public&#45;subnet -->
<g id="node20" class="node">
<title>aws_subnet.da&#45;mlops&#45;test&#45;public&#45;subnet</title>
<polygon fill="none" stroke="#000000" points="971,-398 665,-398 665,-362 971,-362 971,-398"/>
<text text-anchor="middle" x="818" y="-376.3" font-family="sans-serif" font-size="14.00" fill="#000000">aws_subnet.da&#45;mlops&#45;test&#45;public&#45;subnet</text>
</g>
<!-- aws_nat_gateway.da&#45;mlops&#45;test&#45;natgw&#45;&gt;aws_subnet.da&#45;mlops&#45;test&#45;public&#45;subnet -->
<g id="edge5" class="edge">
<title>aws_nat_gateway.da&#45;mlops&#45;test&#45;natgw&#45;&gt;aws_subnet.da&#45;mlops&#45;test&#45;public&#45;subnet</title>
<path fill="none" stroke="#000000" d="M1116.7764,-380C1073.3032,-380 1025.5279,-380 981.1778,-380"/>
<polygon fill="#000000" stroke="#000000" points="981.1774,-376.5001 971.1774,-380 981.1773,-383.5001 981.1774,-376.5001"/>
</g>
<!-- aws_route.da&#45;mlops&#45;test&#45;priv&#45;route -->
<g id="node5" class="node">
<title>aws_route.da&#45;mlops&#45;test&#45;priv&#45;route</title>
<polygon fill="none" stroke="#000000" points="1840.5,-309 1571.5,-309 1571.5,-273 1840.5,-273 1840.5,-309"/>
<text text-anchor="middle" x="1706" y="-287.3" font-family="sans-serif" font-size="14.00" fill="#000000">aws_route.da&#45;mlops&#45;test&#45;priv&#45;route</text>
</g>
<!-- aws_route.da&#45;mlops&#45;test&#45;priv&#45;route&#45;&gt;aws_nat_gateway.da&#45;mlops&#45;test&#45;natgw -->
<g id="edge6" class="edge">
<title>aws_route.da&#45;mlops&#45;test&#45;priv&#45;route&#45;&gt;aws_nat_gateway.da&#45;mlops&#45;test&#45;natgw</title>
<path fill="none" stroke="#000000" d="M1646.9053,-309.1188C1600.3203,-322.8349 1533.5134,-341.2575 1474,-353 1457.6471,-356.2266 1440.4954,-359.1598 1423.3471,-361.802"/>
<polygon fill="#000000" stroke="#000000" points="1422.623,-358.3716 1413.257,-363.3241 1423.6672,-365.2933 1422.623,-358.3716"/>
</g>
<!-- aws_route_table.da&#45;mlops&#45;test&#45;priv&#45;rtb -->
<g id="node7" class="node">
<title>aws_route_table.da&#45;mlops&#45;test&#45;priv&#45;rtb</title>
<polygon fill="none" stroke="#000000" points="965.5,-182 670.5,-182 670.5,-146 965.5,-146 965.5,-182"/>
<text text-anchor="middle" x="818" y="-160.3" font-family="sans-serif" font-size="14.00" fill="#000000">aws_route_table.da&#45;mlops&#45;test&#45;priv&#45;rtb</text>
</g>
<!-- aws_route.da&#45;mlops&#45;test&#45;priv&#45;route&#45;&gt;aws_route_table.da&#45;mlops&#45;test&#45;priv&#45;rtb -->
<g id="edge7" class="edge">
<title>aws_route.da&#45;mlops&#45;test&#45;priv&#45;route&#45;&gt;aws_route_table.da&#45;mlops&#45;test&#45;priv&#45;rtb</title>
<path fill="none" stroke="#000000" d="M1631.1196,-272.9627C1585.8408,-262.5311 1526.8398,-249.7745 1474,-241 1449.6843,-236.9622 1162.0404,-203.6056 975.8071,-182.1404"/>
<polygon fill="#000000" stroke="#000000" points="975.9679,-178.6359 965.633,-180.9679 975.1665,-185.5898 975.9679,-178.6359"/>
</g>
<!-- aws_route_table.da&#45;mlops&#45;test&#45;bastion&#45;rtb -->
<g id="node6" class="node">
<title>aws_route_table.da&#45;mlops&#45;test&#45;bastion&#45;rtb</title>
<polygon fill="none" stroke="#000000" points="978.5,-560 657.5,-560 657.5,-524 978.5,-524 978.5,-560"/>
<text text-anchor="middle" x="818" y="-538.3" font-family="sans-serif" font-size="14.00" fill="#000000">aws_route_table.da&#45;mlops&#45;test&#45;bastion&#45;rtb</text>
</g>
<!-- aws_route_table.da&#45;mlops&#45;test&#45;bastion&#45;rtb&#45;&gt;aws_internet_gateway.da&#45;mlops&#45;test&#45;igw -->
<g id="edge8" class="edge">
<title>aws_route_table.da&#45;mlops&#45;test&#45;bastion&#45;rtb&#45;&gt;aws_internet_gateway.da&#45;mlops&#45;test&#45;igw</title>
<path fill="none" stroke="#000000" d="M657.4923,-525.9036C643.3143,-522.8743 629.3056,-519.2754 616,-515 553.2819,-494.8471 487.0706,-455.7996 447.9301,-430.5906"/>
<polygon fill="#000000" stroke="#000000" points="449.8179,-427.6432 439.5273,-425.1225 445.9999,-433.5104 449.8179,-427.6432"/>
</g>
<!-- aws_route_table.da&#45;mlops&#45;test&#45;priv&#45;rtb&#45;&gt;aws_vpc.da&#45;mlops&#45;test&#45;vpc -->
<g id="edge9" class="edge">
<title>aws_route_table.da&#45;mlops&#45;test&#45;priv&#45;rtb&#45;&gt;aws_vpc.da&#45;mlops&#45;test&#45;vpc</title>
<path fill="none" stroke="#000000" d="M670.2659,-165.6576C536.6633,-167.1567 342.6621,-169.3334 220.2174,-170.7072"/>
<polygon fill="#000000" stroke="#000000" points="220.0234,-167.2091 210.0634,-170.8212 220.102,-174.2087 220.0234,-167.2091"/>
</g>
<!-- aws_route_table.da&#45;mlops&#45;test&#45;priv&#45;rtb&#45;1 -->
<g id="node8" class="node">
<title>aws_route_table.da&#45;mlops&#45;test&#45;priv&#45;rtb&#45;1</title>
<polygon fill="none" stroke="#000000" points="567.5,-236 258.5,-236 258.5,-200 567.5,-200 567.5,-236"/>
<text text-anchor="middle" x="413" y="-214.3" font-family="sans-serif" font-size="14.00" fill="#000000">aws_route_table.da&#45;mlops&#45;test&#45;priv&#45;rtb&#45;1</text>
</g>
<!-- aws_route_table.da&#45;mlops&#45;test&#45;priv&#45;rtb&#45;1&#45;&gt;aws_vpc.da&#45;mlops&#45;test&#45;vpc -->
<g id="edge10" class="edge">
<title>aws_route_table.da&#45;mlops&#45;test&#45;priv&#45;rtb&#45;1&#45;&gt;aws_vpc.da&#45;mlops&#45;test&#45;vpc</title>
<path fill="none" stroke="#000000" d="M292.1542,-199.9516C268.4124,-196.4058 243.5669,-192.6951 220.0225,-189.1787"/>
<polygon fill="#000000" stroke="#000000" points="220.426,-185.7002 210.0187,-187.6846 219.392,-192.6234 220.426,-185.7002"/>
</g>
<!-- aws_route_table.da&#45;mlops&#45;test&#45;pub&#45;rtb -->
<g id="node9" class="node">
<title>aws_route_table.da&#45;mlops&#45;test&#45;pub&#45;rtb</title>
<polygon fill="none" stroke="#000000" points="966,-344 670,-344 670,-308 966,-308 966,-344"/>
<text text-anchor="middle" x="818" y="-322.3" font-family="sans-serif" font-size="14.00" fill="#000000">aws_route_table.da&#45;mlops&#45;test&#45;pub&#45;rtb</text>
</g>
<!-- aws_route_table.da&#45;mlops&#45;test&#45;pub&#45;rtb&#45;&gt;aws_internet_gateway.da&#45;mlops&#45;test&#45;igw -->
<g id="edge11" class="edge">
<title>aws_route_table.da&#45;mlops&#45;test&#45;pub&#45;rtb&#45;&gt;aws_internet_gateway.da&#45;mlops&#45;test&#45;igw</title>
<path fill="none" stroke="#000000" d="M669.8114,-343.6053C651.6291,-346.4133 633.3505,-349.5473 616,-353 571.1567,-361.9238 521.5473,-375.0587 482.5958,-386.1397"/>
<polygon fill="#000000" stroke="#000000" points="481.5809,-382.7896 472.9319,-388.9088 483.5092,-389.5188 481.5809,-382.7896"/>
</g>
<!-- aws_route_table_association.da&#45;mlops&#45;test&#45;bastion&#45;rtba -->
<g id="node10" class="node">
<title>aws_route_table_association.da&#45;mlops&#45;test&#45;bastion&#45;rtba</title>
<polygon fill="none" stroke="#000000" points="1474,-533 1056,-533 1056,-497 1474,-497 1474,-533"/>
<text text-anchor="middle" x="1265" y="-511.3" font-family="sans-serif" font-size="14.00" fill="#000000">aws_route_table_association.da&#45;mlops&#45;test&#45;bastion&#45;rtba</text>
</g>
<!-- aws_route_table_association.da&#45;mlops&#45;test&#45;bastion&#45;rtba&#45;&gt;aws_route_table.da&#45;mlops&#45;test&#45;bastion&#45;rtb -->
<g id="edge12" class="edge">
<title>aws_route_table_association.da&#45;mlops&#45;test&#45;bastion&#45;rtba&#45;&gt;aws_route_table.da&#45;mlops&#45;test&#45;bastion&#45;rtb</title>
<path fill="none" stroke="#000000" d="M1055.8964,-527.6304C1033.4336,-528.9872 1010.776,-530.3558 988.8364,-531.681"/>
<polygon fill="#000000" stroke="#000000" points="988.5806,-528.19 978.8099,-532.2867 989.0027,-535.1773 988.5806,-528.19"/>
</g>
<!-- aws_subnet.da&#45;mlops&#45;test&#45;bastion&#45;subnet -->
<g id="node17" class="node">
<title>aws_subnet.da&#45;mlops&#45;test&#45;bastion&#45;subnet</title>
<polygon fill="none" stroke="#000000" points="976.5,-506 659.5,-506 659.5,-470 976.5,-470 976.5,-506"/>
<text text-anchor="middle" x="818" y="-484.3" font-family="sans-serif" font-size="14.00" fill="#000000">aws_subnet.da&#45;mlops&#45;test&#45;bastion&#45;subnet</text>
</g>
<!-- aws_route_table_association.da&#45;mlops&#45;test&#45;bastion&#45;rtba&#45;&gt;aws_subnet.da&#45;mlops&#45;test&#45;bastion&#45;subnet -->
<g id="edge13" class="edge">
<title>aws_route_table_association.da&#45;mlops&#45;test&#45;bastion&#45;rtba&#45;&gt;aws_subnet.da&#45;mlops&#45;test&#45;bastion&#45;subnet</title>
<path fill="none" stroke="#000000" d="M1055.8964,-502.3696C1032.6397,-500.9648 1009.1742,-499.5474 986.5128,-498.1786"/>
<polygon fill="#000000" stroke="#000000" points="986.7014,-494.6837 976.5085,-497.5743 986.2793,-501.671 986.7014,-494.6837"/>
</g>
<!-- aws_route_table_association.da&#45;mlops&#45;test&#45;db&#45;rtba&#45;1 -->
<g id="node11" class="node">
<title>aws_route_table_association.da&#45;mlops&#45;test&#45;db&#45;rtba&#45;1</title>
<polygon fill="none" stroke="#000000" points="1017,-236 619,-236 619,-200 1017,-200 1017,-236"/>
<text text-anchor="middle" x="818" y="-214.3" font-family="sans-serif" font-size="14.00" fill="#000000">aws_route_table_association.da&#45;mlops&#45;test&#45;db&#45;rtba&#45;1</text>
</g>
<!-- aws_route_table_association.da&#45;mlops&#45;test&#45;db&#45;rtba&#45;1&#45;&gt;aws_route_table.da&#45;mlops&#45;test&#45;priv&#45;rtb&#45;1 -->
<g id="edge14" class="edge">
<title>aws_route_table_association.da&#45;mlops&#45;test&#45;db&#45;rtba&#45;1&#45;&gt;aws_route_table.da&#45;mlops&#45;test&#45;priv&#45;rtb&#45;1</title>
<path fill="none" stroke="#000000" d="M618.7628,-218C605.0665,-218 591.3503,-218 577.8648,-218"/>
<polygon fill="#000000" stroke="#000000" points="577.6016,-214.5001 567.6016,-218 577.6016,-221.5001 577.6016,-214.5001"/>
</g>
<!-- aws_route_table_association.da&#45;mlops&#45;test&#45;db&#45;rtba&#45;1&#45;&gt;aws_subnet.da&#45;mlops&#45;test&#45;db&#45;sub -->
<g id="edge15" class="edge">
<title>aws_route_table_association.da&#45;mlops&#45;test&#45;db&#45;rtba&#45;1&#45;&gt;aws_subnet.da&#45;mlops&#45;test&#45;db&#45;sub</title>
<path fill="none" stroke="#000000" d="M682.8594,-236.0187C641.0131,-241.5983 594.8358,-247.7552 552.6878,-253.375"/>
<polygon fill="#000000" stroke="#000000" points="552.0826,-249.9246 542.6329,-254.7156 553.0078,-256.8632 552.0826,-249.9246"/>
</g>
<!-- aws_route_table_association.da&#45;mlops&#45;test&#45;priv&#45;rtba -->
<g id="node12" class="node">
<title>aws_route_table_association.da&#45;mlops&#45;test&#45;priv&#45;rtba</title>
<polygon fill="none" stroke="#000000" points="1902,-182 1510,-182 1510,-146 1902,-146 1902,-182"/>
<text text-anchor="middle" x="1706" y="-160.3" font-family="sans-serif" font-size="14.00" fill="#000000">aws_route_table_association.da&#45;mlops&#45;test&#45;priv&#45;rtba</text>
</g>
<!-- aws_subnet.da&#45;mlops&#45;test&#45;private&#45;subnet -->
<g id="node19" class="node">
<title>aws_subnet.da&#45;mlops&#45;test&#45;private&#45;subnet</title>
<polygon fill="none" stroke="#000000" points="1422,-182 1108,-182 1108,-146 1422,-146 1422,-182"/>
<text text-anchor="middle" x="1265" y="-160.3" font-family="sans-serif" font-size="14.00" fill="#000000">aws_subnet.da&#45;mlops&#45;test&#45;private&#45;subnet</text>
</g>
<!-- aws_route_table_association.da&#45;mlops&#45;test&#45;priv&#45;rtba&#45;&gt;aws_subnet.da&#45;mlops&#45;test&#45;private&#45;subnet -->
<g id="edge16" class="edge">
<title>aws_route_table_association.da&#45;mlops&#45;test&#45;priv&#45;rtba&#45;&gt;aws_subnet.da&#45;mlops&#45;test&#45;private&#45;subnet</title>
<path fill="none" stroke="#000000" d="M1509.6815,-164C1483.8084,-164 1457.4857,-164 1432.1617,-164"/>
<polygon fill="#000000" stroke="#000000" points="1432.1331,-160.5001 1422.133,-164 1432.133,-167.5001 1432.1331,-160.5001"/>
</g>
<!-- aws_route_table_association.da&#45;mlops&#45;test&#45;pub&#45;rtba -->
<g id="node13" class="node">
<title>aws_route_table_association.da&#45;mlops&#45;test&#45;pub&#45;rtba</title>
<polygon fill="none" stroke="#000000" points="1461,-344 1069,-344 1069,-308 1461,-308 1461,-344"/>
<text text-anchor="middle" x="1265" y="-322.3" font-family="sans-serif" font-size="14.00" fill="#000000">aws_route_table_association.da&#45;mlops&#45;test&#45;pub&#45;rtba</text>
</g>
<!-- aws_route_table_association.da&#45;mlops&#45;test&#45;pub&#45;rtba&#45;&gt;aws_route_table.da&#45;mlops&#45;test&#45;pub&#45;rtb -->
<g id="edge17" class="edge">
<title>aws_route_table_association.da&#45;mlops&#45;test&#45;pub&#45;rtba&#45;&gt;aws_route_table.da&#45;mlops&#45;test&#45;pub&#45;rtb</title>
<path fill="none" stroke="#000000" d="M1068.9393,-326C1037.9587,-326 1006.2639,-326 976.2848,-326"/>
<polygon fill="#000000" stroke="#000000" points="976.1873,-322.5001 966.1873,-326 976.1872,-329.5001 976.1873,-322.5001"/>
</g>
<!-- aws_route_table_association.da&#45;mlops&#45;test&#45;pub&#45;rtba&#45;&gt;aws_subnet.da&#45;mlops&#45;test&#45;public&#45;subnet -->
<g id="edge18" class="edge">
<title>aws_route_table_association.da&#45;mlops&#45;test&#45;pub&#45;rtba&#45;&gt;aws_subnet.da&#45;mlops&#45;test&#45;public&#45;subnet</title>
<path fill="none" stroke="#000000" d="M1115.8448,-344.0187C1071.3523,-349.3937 1022.4237,-355.3045 977.3082,-360.7547"/>
<polygon fill="#000000" stroke="#000000" points="976.6489,-357.3088 967.1409,-361.983 977.4885,-364.2583 976.6489,-357.3088"/>
</g>
<!-- aws_security_group.da&#45;mlops&#45;test&#45;ecrapi&#45;sg -->
<g id="node14" class="node">
<title>aws_security_group.da&#45;mlops&#45;test&#45;ecrapi&#45;sg</title>
<polygon fill="none" stroke="#000000" points="579.5,-144 246.5,-144 246.5,-108 579.5,-108 579.5,-144"/>
<text text-anchor="middle" x="413" y="-122.3" font-family="sans-serif" font-size="14.00" fill="#000000">aws_security_group.da&#45;mlops&#45;test&#45;ecrapi&#45;sg</text>
</g>
<!-- aws_security_group.da&#45;mlops&#45;test&#45;ecrapi&#45;sg&#45;&gt;aws_vpc.da&#45;mlops&#45;test&#45;vpc -->
<g id="edge19" class="edge">
<title>aws_security_group.da&#45;mlops&#45;test&#45;ecrapi&#45;sg&#45;&gt;aws_vpc.da&#45;mlops&#45;test&#45;vpc</title>
<path fill="none" stroke="#000000" d="M292.1542,-144.0484C268.4124,-147.5942 243.5669,-151.3049 220.0225,-154.8213"/>
<polygon fill="#000000" stroke="#000000" points="219.392,-151.3766 210.0187,-156.3154 220.426,-158.2998 219.392,-151.3766"/>
</g>
<!-- aws_security_group.da&#45;mlops&#45;test&#45;ecrdkr&#45;sg -->
<g id="node15" class="node">
<title>aws_security_group.da&#45;mlops&#45;test&#45;ecrdkr&#45;sg</title>
<polygon fill="none" stroke="#000000" points="580,-90 246,-90 246,-54 580,-54 580,-90"/>
<text text-anchor="middle" x="413" y="-68.3" font-family="sans-serif" font-size="14.00" fill="#000000">aws_security_group.da&#45;mlops&#45;test&#45;ecrdkr&#45;sg</text>
</g>
<!-- aws_security_group.da&#45;mlops&#45;test&#45;ecrdkr&#45;sg&#45;&gt;aws_vpc.da&#45;mlops&#45;test&#45;vpc -->
<g id="edge20" class="edge">
<title>aws_security_group.da&#45;mlops&#45;test&#45;ecrdkr&#45;sg&#45;&gt;aws_vpc.da&#45;mlops&#45;test&#45;vpc</title>
<path fill="none" stroke="#000000" d="M277.6665,-90.0949C266.8503,-92.6857 256.179,-95.638 246,-99 208.9619,-111.2334 169.7894,-132.2466 142.1583,-148.5959"/>
<polygon fill="#000000" stroke="#000000" points="140.0233,-145.7952 133.25,-153.9422 143.6255,-151.7973 140.0233,-145.7952"/>
</g>
<!-- aws_security_group.da&#45;mlops&#45;test&#45;ecs&#45;sg -->
<g id="node16" class="node">
<title>aws_security_group.da&#45;mlops&#45;test&#45;ecs&#45;sg</title>
<polygon fill="none" stroke="#000000" points="569.5,-36 256.5,-36 256.5,0 569.5,0 569.5,-36"/>
<text text-anchor="middle" x="413" y="-14.3" font-family="sans-serif" font-size="14.00" fill="#000000">aws_security_group.da&#45;mlops&#45;test&#45;ecs&#45;sg</text>
</g>
<!-- aws_security_group.da&#45;mlops&#45;test&#45;ecs&#45;sg&#45;&gt;aws_vpc.da&#45;mlops&#45;test&#45;vpc -->
<g id="edge21" class="edge">
<title>aws_security_group.da&#45;mlops&#45;test&#45;ecs&#45;sg&#45;&gt;aws_vpc.da&#45;mlops&#45;test&#45;vpc</title>
<path fill="none" stroke="#000000" d="M267.9214,-36.0848C260.3745,-38.6818 253.0191,-41.6375 246,-45 196.0287,-68.9388 150.8587,-116.2393 125.7501,-145.8725"/>
<polygon fill="#000000" stroke="#000000" points="122.9193,-143.8026 119.2129,-153.728 128.2999,-148.2803 122.9193,-143.8026"/>
</g>
<!-- aws_subnet.da&#45;mlops&#45;test&#45;bastion&#45;subnet&#45;&gt;aws_internet_gateway.da&#45;mlops&#45;test&#45;igw -->
<g id="edge22" class="edge">
<title>aws_subnet.da&#45;mlops&#45;test&#45;bastion&#45;subnet&#45;&gt;aws_internet_gateway.da&#45;mlops&#45;test&#45;igw</title>
<path fill="none" stroke="#000000" d="M667.0835,-469.9711C649.8035,-467.2725 632.4829,-464.2801 616,-461 571.1567,-452.0762 521.5473,-438.9413 482.5958,-427.8603"/>
<polygon fill="#000000" stroke="#000000" points="483.5092,-424.4812 472.9319,-425.0912 481.5809,-431.2104 483.5092,-424.4812"/>
</g>
<!-- aws_subnet.da&#45;mlops&#45;test&#45;db&#45;sub&#45;&gt;aws_vpc.da&#45;mlops&#45;test&#45;vpc -->
<g id="edge23" class="edge">
<title>aws_subnet.da&#45;mlops&#45;test&#45;db&#45;sub&#45;&gt;aws_vpc.da&#45;mlops&#45;test&#45;vpc</title>
<path fill="none" stroke="#000000" d="M283.4569,-255.2552C270.6666,-252.3527 257.9917,-248.9608 246,-245 208.9619,-232.7666 169.7894,-211.7534 142.1583,-195.4041"/>
<polygon fill="#000000" stroke="#000000" points="143.6255,-192.2027 133.25,-190.0578 140.0233,-198.2048 143.6255,-192.2027"/>
</g>
<!-- aws_subnet.da&#45;mlops&#45;test&#45;private&#45;subnet&#45;&gt;aws_route_table.da&#45;mlops&#45;test&#45;priv&#45;rtb -->
<g id="edge24" class="edge">
<title>aws_subnet.da&#45;mlops&#45;test&#45;private&#45;subnet&#45;&gt;aws_route_table.da&#45;mlops&#45;test&#45;priv&#45;rtb</title>
<path fill="none" stroke="#000000" d="M1107.7189,-164C1065.001,-164 1018.7353,-164 975.979,-164"/>
<polygon fill="#000000" stroke="#000000" points="975.7672,-160.5001 965.7671,-164 975.7671,-167.5001 975.7672,-160.5001"/>
</g>
<!-- aws_subnet.da&#45;mlops&#45;test&#45;public&#45;subnet&#45;&gt;aws_internet_gateway.da&#45;mlops&#45;test&#45;igw -->
<g id="edge25" class="edge">
<title>aws_subnet.da&#45;mlops&#45;test&#45;public&#45;subnet&#45;&gt;aws_internet_gateway.da&#45;mlops&#45;test&#45;igw</title>
<path fill="none" stroke="#000000" d="M664.8869,-390.2075C636.4334,-392.1044 606.5945,-394.0937 577.8089,-396.0127"/>
<polygon fill="#000000" stroke="#000000" points="577.42,-392.5308 567.675,-396.6883 577.8857,-399.5153 577.42,-392.5308"/>
</g>
<!-- aws_vpc_endpoint.da&#45;mlops&#45;test&#45;ecs&#45;s3&#45;endpoint -->
<g id="node22" class="node">
<title>aws_vpc_endpoint.da&#45;mlops&#45;test&#45;ecs&#45;s3&#45;endpoint</title>
<polygon fill="none" stroke="#000000" points="1450.5,-286 1079.5,-286 1079.5,-250 1450.5,-250 1450.5,-286"/>
<text text-anchor="middle" x="1265" y="-264.3" font-family="sans-serif" font-size="14.00" fill="#000000">aws_vpc_endpoint.da&#45;mlops&#45;test&#45;ecs&#45;s3&#45;endpoint</text>
</g>
<!-- aws_vpc_endpoint.da&#45;mlops&#45;test&#45;ecs&#45;s3&#45;endpoint&#45;&gt;aws_route_table.da&#45;mlops&#45;test&#45;priv&#45;rtb -->
<g id="edge26" class="edge">
<title>aws_vpc_endpoint.da&#45;mlops&#45;test&#45;ecs&#45;s3&#45;endpoint&#45;&gt;aws_route_table.da&#45;mlops&#45;test&#45;priv&#45;rtb</title>
<path fill="none" stroke="#000000" d="M1111.6832,-249.9498C1092.2967,-244.4408 1073.2381,-237.2856 1056,-228 1035.8003,-217.1192 1040.4975,-201.3088 1020,-191 1006.1927,-184.0559 991.2161,-178.6955 975.8712,-174.5805"/>
<polygon fill="#000000" stroke="#000000" points="976.2928,-171.0784 965.7428,-172.052 974.5973,-177.87 976.2928,-171.0784"/>
</g>
<!-- aws_vpc_endpoint.da&#45;mlops&#45;test&#45;ecs&#45;s3&#45;endpoint&#45;&gt;aws_route_table.da&#45;mlops&#45;test&#45;pub&#45;rtb -->
<g id="edge27" class="edge">
<title>aws_vpc_endpoint.da&#45;mlops&#45;test&#45;ecs&#45;s3&#45;endpoint&#45;&gt;aws_route_table.da&#45;mlops&#45;test&#45;pub&#45;rtb</title>
<path fill="none" stroke="#000000" d="M1126.0167,-286.0336C1075.5606,-292.5805 1018.3651,-300.0019 967.0733,-306.6572"/>
<polygon fill="#000000" stroke="#000000" points="966.3638,-303.2198 956.8974,-307.9775 967.2646,-310.1616 966.3638,-303.2198"/>
</g>
</g>
</svg>
